<svg width="267" height="70" viewBox="0 0 267 70" fill="none" xmlns="http://www.w3.org/2000/svg">
<path d="M13.92 31.92H34.14V39.48H13.92V31.92ZM14.64 49.2H37.5V57H4.98V15H36.72V22.8H14.64V49.2ZM83.9139 24.24C86.4739 24.24 88.7339 24.76 90.6939 25.8C92.6939 26.8 94.2539 28.36 95.3739 30.48C96.5339 32.56 97.1139 35.24 97.1139 38.52V57H87.7539V39.96C87.7539 37.36 87.2139 35.44 86.1339 34.2C85.0539 32.96 83.5339 32.34 81.5739 32.34C80.2139 32.34 78.9939 32.66 77.9139 33.3C76.8339 33.9 75.9939 34.82 75.3939 36.06C74.7939 37.3 74.4939 38.88 74.4939 40.8V57H65.1339V39.96C65.1339 37.36 64.5939 35.44 63.5139 34.2C62.4739 32.96 60.9739 32.34 59.0139 32.34C57.6539 32.34 56.4339 32.66 55.3539 33.3C54.2739 33.9 53.4339 34.82 52.8339 36.06C52.2339 37.3 51.9339 38.88 51.9339 40.8V57H42.5739V24.72H51.5139V33.54L49.8339 30.96C50.9539 28.76 52.5339 27.1 54.5739 25.98C56.6539 24.82 59.0139 24.24 61.6539 24.24C64.6139 24.24 67.1939 25 69.3939 26.52C71.6339 28 73.1139 30.28 73.8339 33.36L70.5339 32.46C71.6139 29.94 73.3339 27.94 75.6939 26.46C78.0939 24.98 80.8339 24.24 83.9139 24.24ZM122.584 57.48C119.864 57.48 117.484 56.88 115.444 55.68C113.404 54.48 111.804 52.66 110.644 50.22C109.524 47.74 108.964 44.62 108.964 40.86C108.964 37.06 109.504 33.94 110.584 31.5C111.664 29.06 113.224 27.24 115.264 26.04C117.304 24.84 119.744 24.24 122.584 24.24C125.624 24.24 128.344 24.94 130.744 26.34C133.184 27.7 135.104 29.62 136.504 32.1C137.944 34.58 138.664 37.5 138.664 40.86C138.664 44.26 137.944 47.2 136.504 49.68C135.104 52.16 133.184 54.08 130.744 55.44C128.344 56.8 125.624 57.48 122.584 57.48ZM103.504 68.64V24.72H112.444V31.32L112.264 40.92L112.864 50.46V68.64H103.504ZM120.964 49.8C122.524 49.8 123.904 49.44 125.104 48.72C126.344 48 127.324 46.98 128.044 45.66C128.804 44.3 129.184 42.7 129.184 40.86C129.184 38.98 128.804 37.38 128.044 36.06C127.324 34.74 126.344 33.72 125.104 33C123.904 32.28 122.524 31.92 120.964 31.92C119.404 31.92 118.004 32.28 116.764 33C115.524 33.72 114.544 34.74 113.824 36.06C113.104 37.38 112.744 38.98 112.744 40.86C112.744 42.7 113.104 44.3 113.824 45.66C114.544 46.98 115.524 48 116.764 48.72C118.004 49.44 119.404 49.8 120.964 49.8ZM142.929 57V24.72H151.869V33.84L150.609 31.2C151.569 28.92 153.109 27.2 155.229 26.04C157.349 24.84 159.929 24.24 162.969 24.24V32.88C162.569 32.84 162.209 32.82 161.889 32.82C161.569 32.78 161.229 32.76 160.869 32.76C158.309 32.76 156.229 33.5 154.629 34.98C153.069 36.42 152.289 38.68 152.289 41.76V57H142.929ZM182.32 57.48C178.64 57.48 175.4 56.76 172.6 55.32C169.84 53.88 167.7 51.92 166.18 49.44C164.66 46.92 163.9 44.06 163.9 40.86C163.9 37.62 164.64 34.76 166.12 32.28C167.64 29.76 169.7 27.8 172.3 26.4C174.9 24.96 177.84 24.24 181.12 24.24C184.28 24.24 187.12 24.92 189.64 26.28C192.2 27.6 194.22 29.52 195.7 32.04C197.18 34.52 197.92 37.5 197.92 40.98C197.92 41.34 197.9 41.76 197.86 42.24C197.82 42.68 197.78 43.1 197.74 43.5H171.52V38.04H192.82L189.22 39.66C189.22 37.98 188.88 36.52 188.2 35.28C187.52 34.04 186.58 33.08 185.38 32.4C184.18 31.68 182.78 31.32 181.18 31.32C179.58 31.32 178.16 31.68 176.92 32.4C175.72 33.08 174.78 34.06 174.1 35.34C173.42 36.58 173.08 38.06 173.08 39.78V41.22C173.08 42.98 173.46 44.54 174.22 45.9C175.02 47.22 176.12 48.24 177.52 48.96C178.96 49.64 180.64 49.98 182.56 49.98C184.28 49.98 185.78 49.72 187.06 49.2C188.38 48.68 189.58 47.9 190.66 46.86L195.64 52.26C194.16 53.94 192.3 55.24 190.06 56.16C187.82 57.04 185.24 57.48 182.32 57.48ZM221.772 24.24C224.332 24.24 226.612 24.76 228.612 25.8C230.652 26.8 232.252 28.36 233.412 30.48C234.572 32.56 235.152 35.24 235.152 38.52V57H225.792V39.96C225.792 37.36 225.212 35.44 224.052 34.2C222.932 32.96 221.332 32.34 219.252 32.34C217.772 32.34 216.432 32.66 215.232 33.3C214.072 33.9 213.152 34.84 212.472 36.12C211.832 37.4 211.512 39.04 211.512 41.04V57H202.152V24.72H211.092V33.66L209.412 30.96C210.572 28.8 212.232 27.14 214.392 25.98C216.552 24.82 219.012 24.24 221.772 24.24Z" fill="#C3C3C3"/>
<path d="M238 57.7034H266V44.9834C266 41.9434 265.413 39.2634 264.24 36.9434C263.093 34.6234 261.48 32.8101 259.4 31.5034C257.32 30.1968 254.853 29.5434 252 29.5434C249.173 29.5434 246.707 30.1968 244.6 31.5034C242.52 32.8101 240.893 34.6234 239.72 36.9434C238.573 39.2634 238 41.9434 238 44.9834V57.7034ZM243.32 51.2234V45.3034C243.32 43.4368 243.667 41.8234 244.36 40.4634C245.08 39.0768 246.093 38.0101 247.4 37.2634C248.707 36.4901 250.24 36.1034 252 36.1034C253.787 36.1034 255.32 36.4901 256.6 37.2634C257.907 38.0101 258.907 39.0768 259.6 40.4634C260.32 41.8234 260.68 43.4368 260.68 45.3034V51.2234H243.32Z" fill="#003A98"/>
<path d="M237.52 19.955C237.52 22.1683 237.88 24.2217 238.6 26.115C239.32 27.9817 240.333 29.6083 241.64 30.995C242.947 32.355 244.48 33.4217 246.24 34.195C248 34.9417 249.92 35.315 252 35.315C254.08 35.315 256 34.9417 257.76 34.195C259.52 33.4217 261.053 32.3417 262.36 30.955C263.667 29.5683 264.68 27.9417 265.4 26.075C266.12 24.2083 266.48 22.1817 266.48 19.995C266.48 17.7817 266.12 15.755 265.4 13.915C264.68 12.0483 263.667 10.435 262.36 9.075C261.053 7.68833 259.52 6.60833 257.76 5.835C256.027 5.06166 254.107 4.675 252 4.675C249.92 4.675 247.987 5.06166 246.2 5.835C244.44 6.60833 242.907 7.68833 241.6 9.075C240.32 10.435 239.32 12.0483 238.6 13.915C237.88 15.755 237.52 17.7683 237.52 19.955ZM243.04 19.995C243.04 18.7417 243.253 17.595 243.68 16.555C244.107 15.4883 244.72 14.555 245.52 13.755C246.32 12.955 247.267 12.3417 248.36 11.915C249.453 11.4617 250.667 11.235 252 11.235C253.333 11.235 254.547 11.4617 255.64 11.915C256.733 12.3417 257.68 12.955 258.48 13.755C259.28 14.5283 259.893 15.4483 260.32 16.515C260.747 17.5817 260.96 18.7417 260.96 19.995C260.96 21.2483 260.747 22.4083 260.32 23.475C259.893 24.515 259.28 25.435 258.48 26.235C257.68 27.035 256.733 27.6617 255.64 28.115C254.547 28.5417 253.333 28.755 252 28.755C250.693 28.755 249.48 28.5417 248.36 28.115C247.267 27.6617 246.32 27.0483 245.52 26.275C244.72 25.475 244.107 24.5417 243.68 23.475C243.253 22.4083 243.04 21.2483 243.04 19.995Z" fill="#DC0000"/>
</svg>
